<?xml version="1.0" encoding="utf-8"?>
<!-- Generator: Adobe Illustrator 22.0.1, SVG Export Plug-In . SVG Version: 6.00 Build 0)  -->
<svg version="1.1" id="Layer_1" xmlns="http://www.w3.org/2000/svg" xmlns:xlink="http://www.w3.org/1999/xlink" x="0px" y="0px"
	 viewBox="0 0 227.7 93.2" style="enable-background:new 0 0 227.7 93.2;" xml:space="preserve">
<style type="text/css">
	.st0{fill:#FFFFFF;}
</style>
<path class="st0" d="M2,73.3V14.9h11.8v23h23.1v-23h11.8v58.4H36.9V47.7H13.8v25.5H2z"/>
<path class="st0" d="M85.3,59.8l11.2,1.9c-1.4,4.1-3.7,7.2-6.8,9.3s-7,3.2-11.6,3.2c-7.4,0-12.8-2.4-16.3-7.2
	c-2.8-3.9-4.2-8.7-4.2-14.6c0-7,1.8-12.5,5.5-16.5c3.7-4,8.3-6,13.9-6c6.3,0,11.3,2.1,14.9,6.2c3.6,4.2,5.4,10.5,5.2,19.1H69
	c0.1,3.3,1,5.9,2.7,7.8c1.7,1.8,3.9,2.8,6.5,2.8c1.8,0,3.2-0.5,4.4-1.4C83.8,63.5,84.7,61.9,85.3,59.8z M85.9,48.5
	c-0.1-3.2-0.9-5.7-2.5-7.4s-3.5-2.5-5.8-2.5c-2.4,0-4.5,0.9-6.1,2.7c-1.6,1.8-2.4,4.2-2.4,7.3H85.9z"/>
<path class="st0" d="M144.7,73.3h-11.2V51.7c0-4.6-0.2-7.5-0.7-8.9c-0.5-1.3-1.3-2.4-2.3-3.1c-1.1-0.7-2.4-1.1-3.9-1.1
	c-1.9,0-3.7,0.5-5.2,1.6c-1.5,1.1-2.6,2.5-3.2,4.2s-0.9,5-0.9,9.7v19.2h-11.2V31h10.4v6.2c3.7-4.8,8.3-7.2,13.9-7.2
	c2.5,0,4.7,0.4,6.8,1.3c2,0.9,3.6,2,4.6,3.4c1,1.4,1.8,2.9,2.2,4.7c0.4,1.8,0.6,4.3,0.6,7.5V73.3z"/>
<path class="st0" d="M166.7,73.3h-11.2V31h10.4v6c1.8-2.8,3.4-4.7,4.8-5.6c1.4-0.9,3-1.4,4.8-1.4c2.5,0,5,0.7,7.4,2.1l-3.5,9.8
	c-1.9-1.2-3.6-1.8-5.3-1.8c-1.6,0-2.9,0.4-4,1.3s-1.9,2.4-2.6,4.7c-0.6,2.3-0.9,7-0.9,14.2V73.3z"/>
<path class="st0" d="M182.5,31h11.9l10.1,30l9.9-30H226L211,71.7l-2.7,7.4c-1,2.5-1.9,4.4-2.8,5.7c-0.9,1.3-1.9,2.4-3.1,3.2
	c-1.2,0.8-2.6,1.4-4.3,1.9c-1.7,0.5-3.6,0.7-5.7,0.7c-2.2,0-4.3-0.2-6.3-0.7l-1-8.8c1.8,0.3,3.3,0.5,4.7,0.5c2.6,0,4.5-0.8,5.8-2.3
	c1.2-1.5,2.2-3.5,2.9-5.8L182.5,31z"/>
</svg>
