<?xml version="1.0" encoding="utf-8"?>
<!-- Generator: Adobe Illustrator 22.0.1, SVG Export Plug-In . SVG Version: 6.00 Build 0)  -->
<svg version="1.1" id="Layer_1" xmlns="http://www.w3.org/2000/svg" xmlns:xlink="http://www.w3.org/1999/xlink" x="0px" y="0px"
	 viewBox="0 0 219.8 93.2" style="enable-background:new 0 0 219.8 93.2;" xml:space="preserve">
<style type="text/css">
	.st0{fill:#FFFFFF;}
</style>
<path class="st0" d="M0,0v93.2h219.8V0H0z M58.4,65.7c-1.9,2.9-4.5,5.1-7.9,6.5s-7.6,2.1-12.7,2.1c-7.4,0-13-1.7-17-5.1
	s-6.3-8.4-7.1-14.9l11.5-1.1c0.7,3.9,2.1,6.7,4.2,8.5c2.1,1.8,5,2.7,8.5,2.7c3.8,0,6.6-0.8,8.6-2.4c1.9-1.6,2.9-3.5,2.9-5.6
	c0-1.4-0.4-2.6-1.2-3.5c-0.8-1-2.2-1.8-4.2-2.5c-1.4-0.5-4.5-1.3-9.4-2.6c-6.3-1.6-10.7-3.5-13.3-5.8c-3.6-3.2-5.4-7.1-5.4-11.8
	c0-3,0.8-5.8,2.5-8.3c1.7-2.6,4.1-4.6,7.3-5.9c3.2-1.4,7-2,11.5-2c7.3,0,12.8,1.6,16.5,4.8c3.7,3.2,5.6,7.5,5.8,12.9l-11.8,0.5
	c-0.5-3-1.6-5.2-3.2-6.5c-1.7-1.3-4.1-2-7.5-2c-3.4,0-6.1,0.7-8,2.1c-1.2,0.9-1.9,2.1-1.9,3.6c0,1.4,0.6,2.6,1.7,3.5
	c1.5,1.2,5.1,2.6,10.8,3.9c5.7,1.4,10,2.8,12.7,4.2c2.7,1.4,4.9,3.4,6.4,5.9c1.6,2.5,2.3,5.6,2.3,9.3C61.1,59.6,60.2,62.7,58.4,65.7
	z M81.9,63.1c1.7,1.8,3.9,2.8,6.4,2.8c1.7,0,3.2-0.5,4.4-1.4c1.2-1,2.1-2.5,2.7-4.6l11.1,1.9c-1.4,4.1-3.7,7.2-6.8,9.3
	c-3.1,2.1-7,3.2-11.6,3.2c-7.3,0-12.8-2.4-16.3-7.2c-2.8-3.9-4.2-8.7-4.2-14.6c0-7,1.8-12.5,5.5-16.5c3.7-4,8.3-6,13.9-6
	c6.3,0,11.2,2.1,14.9,6.2c3.6,4.2,5.4,10.5,5.2,19.1h-28C79.2,58.7,80.1,61.3,81.9,63.1z M127.2,63.1c1.7,1.8,3.9,2.8,6.4,2.8
	c1.7,0,3.2-0.5,4.4-1.4c1.2-1,2.1-2.5,2.7-4.6l11.1,1.9c-1.4,4.1-3.7,7.2-6.8,9.3c-3.1,2.1-7,3.2-11.6,3.2c-7.3,0-12.8-2.4-16.3-7.2
	c-2.8-3.9-4.2-8.7-4.2-14.6c0-7,1.8-12.5,5.5-16.5c3.7-4,8.3-6,13.9-6c6.3,0,11.2,2.1,14.9,6.2c3.6,4.2,5.4,10.5,5.2,19.1h-28
	C124.5,58.7,125.4,61.3,127.2,63.1z M200.3,73.3h-10.4v-6.2c-1.7,2.4-3.8,4.2-6.1,5.4c-2.3,1.2-4.7,1.8-7.1,1.8c-4.9,0-9-2-12.5-5.9
	c-3.5-3.9-5.2-9.4-5.2-16.4c0-7.2,1.7-12.6,5.1-16.4c3.4-3.7,7.6-5.6,12.8-5.6c4.7,0,8.8,2,12.2,5.9v-21h11.2V73.3z"/>
<path class="st0" d="M177.5,38.6c-2.7,0-4.9,1.1-6.7,3.2s-2.7,5.3-2.7,9.5c0,4.5,0.6,7.8,1.9,9.8c1.8,2.9,4.3,4.4,7.6,4.4
	c2.6,0,4.8-1.1,6.6-3.3c1.8-2.2,2.7-5.5,2.7-9.8c0-4.9-0.9-8.4-2.6-10.5C182.4,39.6,180.2,38.6,177.5,38.6z"/>
<path class="st0" d="M93.3,41.1c-1.6-1.7-3.5-2.5-5.8-2.5c-2.4,0-4.5,0.9-6.1,2.7c-1.6,1.8-2.4,4.2-2.4,7.3h16.7
	C95.7,45.3,94.9,42.8,93.3,41.1z"/>
<path class="st0" d="M138.7,41.1c-1.6-1.7-3.5-2.5-5.8-2.5c-2.4,0-4.5,0.9-6.1,2.7c-1.6,1.8-2.4,4.2-2.4,7.3h16.7
	C141.1,45.3,140.3,42.8,138.7,41.1z"/>
</svg>
