<?xml version="1.0" standalone="no"?>
<!DOCTYPE svg PUBLIC "-//W3C//DTD SVG 20010904//EN"
 "http://www.w3.org/TR/2001/REC-SVG-20010904/DTD/svg10.dtd">
<svg version="1.0" xmlns="http://www.w3.org/2000/svg"
 width="300.000000pt" height="300.000000pt" viewBox="0 0 300.000000 300.000000"
 preserveAspectRatio="xMidYMid meet">
<metadata>
Created by potrace 1.11, written by Peter Selinger 2001-2013
</metadata>
<g transform="translate(0.000000,300.000000) scale(0.100000,-0.100000)"
fill="#000000" stroke="none">
<path d="M439 2793 c-1 -23 -1 -2574 0 -2591 1 -10 57 -12 264 -10 l262 3 2
420 c1 231 2 489 2 573 l1 152 517 -2 517 -3 0 -572 -1 -573 264 0 c243 0 263
1 264 18 1 22 1 2561 0 2585 -1 16 -21 17 -264 17 l-264 0 1 -515 1 -515 -517
0 c-408 0 -518 3 -518 13 -1 6 -1 238 -1 515 l-1 502 -264 0 c-244 0 -264 -1
-265 -17z"/>
</g>
</svg>
