<?xml version="1.0" standalone="no"?>
<!DOCTYPE svg PUBLIC "-//W3C//DTD SVG 20010904//EN"
 "http://www.w3.org/TR/2001/REC-SVG-20010904/DTD/svg10.dtd">
<svg version="1.0" xmlns="http://www.w3.org/2000/svg"
 width="300.000000pt" height="300.000000pt" viewBox="0 0 300.000000 300.000000"
 preserveAspectRatio="xMidYMid meet">
<metadata>
Created by potrace 1.11, written by Peter Selinger 2001-2013
</metadata>
<g transform="translate(0.000000,300.000000) scale(0.100000,-0.100000)"
fill="#000000" stroke="none">
<path d="M1467 2994 c-1 -1 -42 -5 -92 -8 -100 -8 -195 -26 -300 -56 -38 -12
-77 -22 -85 -23 -8 -1 -17 -5 -20 -8 -3 -3 -31 -15 -62 -28 -31 -12 -91 -42
-132 -66 -42 -24 -76 -40 -76 -37 0 3 -7 -3 -15 -14 -8 -10 -15 -16 -15 -11 0
4 -8 -1 -18 -10 -10 -10 -29 -25 -41 -33 -36 -24 -71 -53 -107 -87 -18 -17
-35 -29 -38 -25 -3 3 -6 1 -6 -4 0 -5 -23 -34 -52 -64 -216 -229 -363 -552
-393 -866 -6 -61 -6 -260 -1 -294 3 -14 7 -47 11 -75 21 -165 103 -398 188
-532 15 -24 25 -43 22 -43 -3 0 2 -8 11 -17 8 -10 37 -47 64 -83 26 -36 64
-82 84 -104 20 -21 36 -42 36 -47 0 -5 4 -9 9 -9 5 0 37 -27 72 -60 35 -33 68
-60 73 -60 5 0 19 -11 31 -24 13 -14 26 -22 29 -19 3 4 6 1 6 -5 0 -7 6 -12
13 -12 7 0 22 -8 33 -18 10 -10 36 -26 56 -35 21 -10 38 -22 38 -27 0 -6 3 -9
8 -8 12 4 72 -24 72 -34 0 -5 6 -8 13 -7 6 1 21 -2 32 -6 63 -26 122 -47 139
-51 10 -2 42 -10 70 -18 28 -8 69 -17 91 -22 22 -4 45 -8 51 -10 69 -14 285
-20 369 -10 177 21 329 61 451 117 27 12 55 22 62 22 6 0 12 4 12 9 0 4 4 8
10 8 20 0 211 126 255 167 8 7 16 13 19 13 3 0 25 18 47 40 23 22 46 40 52 40
6 0 8 2 5 5 -7 7 54 70 65 67 4 -1 6 1 5 5 -4 14 27 53 41 53 8 0 12 3 8 6 -5
5 31 61 71 109 5 6 29 49 53 95 24 47 47 87 52 88 4 2 7 8 7 14 0 5 6 24 14
41 32 71 78 222 91 302 13 75 15 90 20 140 10 96 3 354 -11 376 -2 4 -6 24
-10 45 -3 22 -12 60 -19 87 -8 26 -11 47 -8 47 3 0 1 6 -4 13 -5 6 -15 32 -23
57 -17 58 -102 241 -130 280 -12 16 -18 30 -13 30 4 0 0 5 -9 11 -10 5 -18 17
-18 24 0 8 -4 15 -8 15 -4 0 -15 12 -24 28 -9 15 -31 45 -49 67 -42 51 -217
225 -225 224 -3 0 -18 10 -33 23 -15 12 -36 29 -47 35 -48 31 -159 98 -164 98
-3 0 -16 7 -30 15 -14 8 -27 15 -30 15 -3 0 -21 8 -40 17 -19 9 -64 26 -100
38 -36 12 -72 25 -80 28 -8 3 -24 6 -36 7 -12 1 -30 5 -40 9 -10 4 -32 10 -49
12 -16 3 -41 7 -55 9 -64 10 -247 23 -253 19z"/>
</g>
</svg>
