<?xml version="1.0" standalone="no"?>
<!DOCTYPE svg PUBLIC "-//W3C//DTD SVG 20010904//EN"
 "http://www.w3.org/TR/2001/REC-SVG-20010904/DTD/svg10.dtd">
<svg version="1.0" xmlns="http://www.w3.org/2000/svg"
 width="260.000000pt" height="260.000000pt" viewBox="0 0 260.000000 260.000000"
 preserveAspectRatio="xMidYMid meet">
<metadata>
Created by potrace 1.11, written by Peter Selinger 2001-2013
</metadata>
<g transform="translate(0.000000,260.000000) scale(0.100000,-0.100000)"
fill="#000000" stroke="none">
<path d="M1179 2577 c-2 -3 -26 -7 -54 -10 -123 -14 -267 -58 -398 -124 -351
-175 -596 -495 -683 -893 -10 -44 -18 -136 -20 -220 -5 -227 29 -383 126 -585
123 -253 309 -447 555 -576 81 -43 197 -90 260 -105 138 -34 209 -41 355 -39
85 2 164 5 175 8 11 2 38 8 60 12 22 5 42 9 45 10 3 1 25 7 50 14 338 93 633
337 793 658 92 183 130 343 131 548 1 155 -6 228 -29 325 -117 481 -502 851
-995 956 -68 14 -360 30 -371 21z m291 -473 c311 -65 566 -320 635 -635 9 -42
12 -110 11 -194 -3 -109 -8 -144 -31 -215 -86 -267 -276 -458 -546 -546 -71
-22 -105 -27 -215 -30 -190 -4 -323 31 -467 126 -314 204 -451 581 -340 935
76 241 261 437 495 525 130 48 321 63 458 34z"/>
</g>
</svg>
