<?xml version="1.0" standalone="no"?>
<!DOCTYPE svg PUBLIC "-//W3C//DTD SVG 20010904//EN"
 "http://www.w3.org/TR/2001/REC-SVG-20010904/DTD/svg10.dtd">
<svg version="1.0" xmlns="http://www.w3.org/2000/svg"
 width="260.000000pt" height="260.000000pt" viewBox="0 0 260.000000 260.000000"
 preserveAspectRatio="xMidYMid meet">
<metadata>
Created by potrace 1.11, written by Peter Selinger 2001-2013
</metadata>
<g transform="translate(0.000000,260.000000) scale(0.100000,-0.100000)"
fill="#000000" stroke="none">
<path d="M1179 2566 c-2 -2 -26 -6 -54 -10 -75 -9 -200 -42 -290 -78 -381
-152 -659 -468 -764 -868 -30 -112 -32 -133 -36 -285 -8 -360 120 -681 372
-931 180 -179 394 -294 653 -350 110 -24 345 -26 468 -4 387 70 721 316 909
670 47 88 93 221 119 340 25 117 25 371 0 490 -53 253 -170 471 -349 652 -238
241 -555 373 -902 376 -67 1 -124 0 -126 -2z m216 -460 c268 -26 516 -198 639
-443 72 -144 104 -328 82 -473 -41 -268 -187 -481 -421 -612 -71 -40 -198 -83
-275 -94 -57 -7 -204 -7 -230 1 -8 2 -31 7 -50 10 -116 19 -281 102 -380 193
-178 162 -275 382 -271 617 0 44 3 91 6 105 2 14 7 39 11 55 61 316 338 582
659 634 71 11 142 18 160 14 6 -1 37 -4 70 -7z"/>
</g>
</svg>
