<?xml version="1.0" standalone="no"?>
<!DOCTYPE svg PUBLIC "-//W3C//DTD SVG 20010904//EN"
 "http://www.w3.org/TR/2001/REC-SVG-20010904/DTD/svg10.dtd">
<svg version="1.0" xmlns="http://www.w3.org/2000/svg"
 width="300.000000pt" height="300.000000pt" viewBox="0 0 300.000000 300.000000"
 preserveAspectRatio="xMidYMid meet">
<metadata>
Created by potrace 1.11, written by Peter Selinger 2001-2013
</metadata>
<g transform="translate(0.000000,300.000000) scale(0.100000,-0.100000)"
fill="#000000" stroke="none">
<path d="M1300 2973 c-221 -29 -482 -134 -673 -270 -104 -74 -256 -226 -330
-330 -115 -161 -210 -378 -253 -573 -27 -122 -27 -478 0 -600 43 -195 138
-412 253 -573 74 -104 226 -256 330 -330 159 -113 356 -201 557 -249 127 -31
486 -33 616 -4 196 43 412 138 573 253 104 74 256 226 330 330 115 161 210
378 253 573 27 122 27 478 0 600 -43 195 -138 412 -253 573 -74 104 -226 256
-330 330 -157 112 -360 203 -553 249 -67 15 -129 20 -285 23 -110 2 -216 1
-235 -2z"/>
</g>
</svg>
