<?xml version="1.0" standalone="no"?>
<!DOCTYPE svg PUBLIC "-//W3C//DTD SVG 20010904//EN"
 "http://www.w3.org/TR/2001/REC-SVG-20010904/DTD/svg10.dtd">
<svg version="1.0" xmlns="http://www.w3.org/2000/svg"
 width="500.000000pt" height="500.000000pt" viewBox="0 0 500.000000 500.000000"
 preserveAspectRatio="xMidYMid meet">
<metadata>
Created by potrace 1.11, written by Peter Selinger 2001-2013
</metadata>
<g transform="translate(0.000000,500.000000) scale(0.100000,-0.100000)"
fill="#000000" stroke="none">
<path d="M2320 4964 c-19 -2 -78 -9 -130 -15 -684 -78 -1336 -475 -1729 -1053
-222 -327 -356 -680 -412 -1086 -17 -123 -17 -487 0 -610 68 -498 261 -932
575 -1296 408 -473 936 -758 1566 -845 123 -17 487 -17 610 0 630 87 1158 372
1566 845 314 364 507 798 575 1296 17 123 17 487 0 610 -68 498 -261 932 -575
1296 -401 465 -920 750 -1531 840 -97 14 -444 26 -515 18z m-510 -1448 l0
-564 173 -7 c94 -3 352 -5 572 -3 l400 3 3 568 2 567 290 0 290 0 0 -1445 0
-1445 -290 0 -290 0 0 478 c0 264 -3 547 -7 630 l-6 152 -569 0 -568 0 0 -630
0 -630 -290 0 -290 0 0 1445 0 1445 290 0 290 0 0 -564z"/>
</g>
</svg>
